Coordinates
version=1
nRows=20
nColumns=23
inDegrees=yes

Units are S.I. units (second, meters, Newtons, ...)
Angles are in degrees.

endheader
time	pelvis_tilt	pelvis_list	pelvis_rotation	pelvis_tx	pelvis_ty	pelvis_tz	hip_flexion_r	hip_adduction_r	hip_rotation_r	knee_angle_r	knee_angle_r_beta	ankle_angle_r	subtalar_angle_r	mtp_angle_r	hip_flexion_l	hip_adduction_l	hip_rotation_l	knee_angle_l	knee_angle_l_beta	ankle_angle_l	subtalar_angle_l	mtp_angle_l
    123.00444400	     -6.48862088	      6.49320721	      3.74301097	      0.00283139	      1.34538075	      0.23182720	     31.82577112	    -10.27064052	     -3.68020374	     28.49407971	      0.49731551	     -6.64119257	      0.00000000	      0.00000000	     67.29439807	     -4.80686784	     -6.27308672	    111.03336696	      1.93789783	     14.83632373	      0.00000000	      0.00000000
    123.01333300	     -6.49192875	      6.61789061	      3.91148417	      0.00245568	      1.34561067	      0.23191320	     31.24005363	    -10.43591149	     -3.63742517	     28.61649314	      0.49945203	     -7.27481700	      0.00000000	      0.00000000	     68.12047652	     -4.68055671	     -6.43912163	    111.04056867	      1.93802353	     15.76045374	      0.00000000	      0.00000000
    123.02222200	     -6.48787742	      6.68731094	      4.04509592	      0.00198318	      1.34593657	      0.23200365	     30.76904771	    -10.53769674	     -3.57284737	     29.00325696	      0.50620233	     -7.76786207	      0.00000000	      0.00000000	     68.85191852	     -4.59126734	     -6.59759108	    110.85481661	      1.93478154	     16.69837560	      0.00000000	      0.00000000
    123.03111100	     -6.46788028	      6.71133196	      4.17302824	      0.00142025	      1.34635737	      0.23202833	     30.40979872	    -10.60468731	     -3.50636337	     29.68543591	      0.51810860	     -8.06287638	      0.00000000	      0.00000000	     69.48051377	     -4.50080158	     -6.74239279	    110.46709299	      1.92801449	     17.58556472	      0.00000000	      0.00000000
    123.04000000	     -6.37730381	      6.62507644	      4.26961328	      0.00071145	      1.34685168	      0.23202665	     30.09675362	    -10.56212363	     -3.47068673	     30.62149242	      0.53444586	     -8.26037225	      0.00000000	      0.00000000	     69.97974549	     -4.47374788	     -6.80693046	    109.91207019	      1.91832751	     18.21880104	      0.00000000	      0.00000000
    123.04888900	     -6.46372011	      6.66377724	      4.29267289	      0.00006289	      1.34723967	      0.23216695	     30.16101103	    -10.60359464	     -3.21221676	     31.92812075	      0.55725083	     -8.06192233	      0.00000000	      0.00000000	     70.47931257	     -4.44552858	     -7.07284605	    109.11802676	      1.90446884	     19.24886010	      0.00000000	      0.00000000
    123.05777800	     -6.28492555	      6.38887338	      4.37769798	     -0.00075639	      1.34786569	      0.23202144	     29.96923991	    -10.39167684	     -3.24464794	     33.30869144	      0.58134634	     -8.22943615	      0.00000000	      0.00000000	     70.75132973	     -4.46767840	     -6.99040260	    108.22029569	      1.88880048	     19.63638809	      0.00000000	      0.00000000
    123.06666700	     -6.44669613	      6.48211482	      4.29011845	     -0.00146929	      1.34811127	      0.23219722	     30.43112335	    -10.46276015	     -2.81220862	     35.24137294	      0.61507799	     -7.43575552	      0.00000000	      0.00000000	     71.09073871	     -4.48945482	     -7.40108621	    107.02486178	      1.86793622	     20.40815031	      0.00000000	      0.00000000
    123.07555600	     -6.21875058	      6.06983902	      4.33890637	     -0.00235298	      1.34871356	      0.23192243	     30.40245794	    -10.12917647	     -2.88439012	     37.01828860	      0.64609102	     -7.59016564	      0.00000000	      0.00000000	     71.14608848	     -4.56294446	     -7.20467710	    105.81028476	      1.84673785	     20.60373432	      0.00000000	      0.00000000
    123.08444400	     -6.38676523	      6.19819748	      4.15664488	     -0.00297909	      1.34890290	      0.23209095	     31.10952361	    -10.21724983	     -2.36020162	     39.39003022	      0.68748572	     -6.47562611	      0.00000000	      0.00000000	     71.24231049	     -4.62838006	     -7.72672823	    104.24289103	      1.81938167	     21.03049416	      0.00000000	      0.00000000
    123.09333300	     -6.33789242	      6.03258294	      4.06116339	     -0.00377562	      1.34914678	      0.23191483	     31.60318126	    -10.08235622	     -2.11678560	     41.77286408	      0.72907402	     -5.90840698	      0.00000000	      0.00000000	     71.15455781	     -4.69383189	     -7.86716321	    102.62023601	      1.79106100	     21.12727469	      0.00000000	      0.00000000
    123.10222200	     -6.28161638	      5.84035101	      3.92853899	     -0.00445394	      1.34936401	      0.23169946	     32.15727357	     -9.91681307	     -1.87407512	     44.27111289	      0.77267668	     -5.25486464	      0.00000000	      0.00000000	     70.93839757	     -4.78899680	     -7.99861315	    100.84332163	      1.76004799	     21.08862806	      0.00000000	      0.00000000
    123.11111100	     -6.21279507	      5.63739897	      3.76768346	     -0.00503191	      1.34952473	      0.23141739	     32.77539069	     -9.74938536	     -1.65905181	     46.88667063	      0.81832678	     -4.56385114	      0.00000000	      0.00000000	     70.59090065	     -4.89252417	     -8.12373195	     98.92670092	      1.72659665	     20.91227504	      0.00000000	      0.00000000
    123.12000000	     -5.96307892	      4.97577550	      3.69082832	     -0.00552585	      1.34975174	      0.23071652	     33.12195574	     -9.21430096	     -1.85544145	     49.32342984	      0.86085625	     -4.61013785	      0.00000000	      0.00000000	     70.11494332	     -5.08548760	     -7.71596332	     97.05715909	      1.69396699	     20.84029009	      0.00000000	      0.00000000
    123.12888900	     -6.06935597	      5.19467705	      3.38657572	     -0.00580676	      1.34964771	      0.23068000	     34.16941844	     -9.39254706	     -1.26931443	     52.38166958	      0.91423260	     -2.87400738	      0.00000000	      0.00000000	     69.52707009	     -5.11364621	     -8.34273459	     94.70720010	      1.65295247	     20.28680529	      0.00000000	      0.00000000
    123.13777800	     -5.97578279	      4.97230077	      3.17300687	     -0.00600656	      1.34970484	      0.23018207	     34.90111791	     -9.22811247	     -1.09978713	     55.19249158	      0.96329070	     -2.01665574	      0.00000000	      0.00000000	     68.77694777	     -5.20850967	     -8.44938434	     92.39519978	      1.61260045	     19.81467356	      0.00000000	      0.00000000
    123.14666700	     -5.84094694	      4.78194325	      2.95273802	     -0.00608049	      1.34985460	      0.22962904	     35.62228860	     -9.11509971	     -0.95919491	     58.02468139	      1.01272174	     -1.22875960	      0.00000000	      0.00000000	     67.83774387	     -5.27148488	     -8.58817409	     89.93474205	      1.56965736	     19.20512575	      0.00000000	      0.00000000
    123.15555600	     -5.73876051	      4.54003546	      2.69887263	     -0.00599737	      1.34985756	      0.22906893	     36.40872813	     -8.93616742	     -0.81834852	     60.90487265	      1.06299056	     -0.16467103	      0.00000000	      0.00000000	     66.83542577	     -5.38162141	     -8.69106211	     87.40025514	      1.52542222	     18.55270445	      0.00000000	      0.00000000
    123.16444400	     -5.63212632	      4.30994345	      2.44315623	     -0.00579053	      1.34992801	      0.22844198	     37.20987866	     -8.78280104	     -0.68697960	     63.76963229	      1.11299005	      0.84424861	      0.00000000	      0.00000000	     65.69645746	     -5.46115966	     -8.80295883	     84.73547761	      1.47891308	     17.77777446	      0.00000000	      0.00000000
    123.17333300	     -5.54401275	      4.06201591	      2.14691562	     -0.00545348	      1.34997946	      0.22787034	     38.05539718	     -8.58633322	     -0.53001632	     66.64229844	      1.16312753	      2.06696395	      0.00000000	      0.00000000	     64.46342450	     -5.57880774	     -8.92423617	     81.98278199	      1.43086948	     16.91285853	      0.00000000	      0.00000000
